<svg width="530" height="530" viewBox="0 0 530 530" fill="none" xmlns="http://www.w3.org/2000/svg">
<path d="M46.8676 310.268L46.3041 287.942C46.3041 275.198 59.2441 266.679 59.2441 266.679L95.4415 239.195L95.7883 207.289C95.94 190.449 116.38 195.542 117.442 203.279L118.786 221.183L159.427 193.244L157.497 168.036C155.07 140.727 177.72 144.866 179.996 158.369L181.99 175.405L240.231 130.603C241.9 43.6709 242.302 7.90122 264.464 6.75117C286.769 5.59372 287.093 47.4203 288.307 129.346L348.715 175.102L350.514 155.313C351.576 143.631 371.409 140.836 370.802 163.593L369.957 192.442L410.966 220.923L413.112 204.515C414.781 189.799 433.357 188.477 434.115 211.386L434.224 240.973C434.072 242.035 469.511 266.636 469.511 266.636C487.565 278.014 484.64 291.692 484.64 291.692L483.339 310.636L336.274 240.474C323.53 234.102 305.076 231.797 292.815 246.521C286.443 254.411 280.59 284.583 281.046 289.893L279.442 371.695C279.138 373.516 337.986 417.408 337.986 417.408C339.503 418.925 343.621 449.487 343.621 449.487L270.165 428.874L263.185 447.991L258.937 428.484L184.505 449.205L189.295 418.318C199.763 411.795 249.313 372.259 249.768 370.893C249.768 370.893 250.068 298.648 249.963 294.402C249.357 269.824 248.684 261.086 244.285 253.046C239.881 244.998 227.654 238.979 197.293 246.24C155.42 256.253 46.8676 310.268 46.8676 310.268Z" fill="#053582"/>
</svg>
